<svg version="1.1" id="Layer_1" xmlns="http://www.w3.org/2000/svg" xmlns:xlink="http://www.w3.org/1999/xlink" x="0px" y="0px"
	 width="100%" viewBox="0 0 372 192" enable-background="new 0 0 372 192" xml:space="preserve">
<path fill="#FFFFFF" opacity="1.000000" stroke="none" 
	d="
M220.000000,193.000000 
	C146.666672,193.000000 73.833351,193.000000 1.000020,193.000000 
	C1.000013,129.000015 1.000013,65.000031 1.000007,1.000037 
	C124.999969,1.000025 248.999939,1.000025 372.999939,1.000012 
	C372.999939,64.999962 372.999939,128.999924 372.999969,192.999939 
	C322.166656,193.000000 271.333344,193.000000 220.000000,193.000000 
M156.155838,89.150047 
	C152.860168,72.151405 140.530838,61.345592 124.019165,60.029224 
	C124.005028,49.043270 123.968521,38.057266 123.992729,27.071398 
	C123.998665,24.377254 123.908813,22.000977 120.226791,22.015453 
	C108.075668,22.063231 95.922615,21.944666 83.775375,22.166849 
	C82.518547,22.189837 80.243317,24.039118 80.218788,25.082794 
	C79.957939,36.180584 80.056892,47.286835 80.056892,58.168934 
	C82.799507,58.956215 84.935699,59.569420 86.380875,60.412300 
	C74.479759,60.412300 62.578640,60.412300 50.443691,60.412300 
	C50.443691,63.936672 50.725090,66.621452 50.382072,69.223946 
	C49.766407,73.895065 51.485363,76.787613 55.487816,79.391701 
	C64.107567,84.999893 72.340660,91.202377 81.101601,97.424126 
	C71.707176,104.064247 62.616333,110.415756 53.634972,116.918480 
	C52.301216,117.884148 50.710251,119.488708 50.572742,120.925415 
	C50.165863,125.176567 50.427235,129.491684 50.427235,134.553925 
	C60.998520,134.553925 71.095436,134.553925 80.852425,135.383240 
	C80.616982,136.001602 80.180756,136.618454 80.176041,137.238571 
	C80.097786,147.532791 79.963081,157.830124 80.214485,168.117630 
	C80.238693,169.108307 82.721954,170.845322 84.088676,170.870331 
	C96.042053,171.089005 108.002777,170.886017 119.957458,171.065308 
	C123.465836,171.117950 124.056503,169.605591 124.026550,166.584076 
	C123.916267,155.458481 124.008110,144.330902 124.858154,133.049957 
	C142.137863,131.331635 154.185165,120.139282 156.439392,103.421440 
	C156.519760,102.271194 156.600143,101.120949 156.862228,99.135551 
	C156.803207,97.433250 156.744186,95.730942 156.854355,93.343506 
	C156.606995,92.215965 156.359650,91.088417 156.155838,89.150047 
M256.380829,60.505016 
	C256.441437,60.713089 256.502045,60.921158 256.298157,62.017841 
	C256.298157,75.554222 256.298157,89.090607 256.298157,104.144218 
	C250.765610,96.305084 246.118011,89.719841 242.234528,82.680641 
	C242.448517,82.241814 242.848160,81.803635 242.849731,81.364052 
	C242.915115,62.931400 242.915649,44.498482 243.008911,26.066025 
	C243.023849,23.112078 241.276688,23.000643 239.098984,23.006655 
	C227.473221,23.038759 215.846069,23.115280 204.222244,22.961136 
	C200.974319,22.918064 199.889572,23.958460 199.933487,27.230942 
	C200.085007,38.522285 199.976273,49.817120 199.087845,60.885143 
	C196.281525,61.074047 193.407516,60.937134 190.679733,61.503990 
	C170.853104,65.624138 159.558746,85.225639 164.634125,106.495132 
	C168.739502,123.699539 182.745026,134.144791 199.961716,133.788742 
	C199.972763,144.927979 200.116028,156.069565 199.919266,167.205124 
	C199.855103,170.837112 200.799988,172.166260 204.637909,172.084702 
	C215.772232,171.848099 226.918884,171.829422 238.052048,172.091904 
	C242.069855,172.186646 243.117950,170.889328 243.071335,166.998550 
	C242.876144,150.707504 242.957932,134.412598 243.035797,118.119583 
	C243.044006,116.405144 243.694778,114.693779 244.601379,113.358917 
	C248.685822,119.032806 252.721649,124.742882 256.896515,130.349442 
	C257.710632,131.442749 259.016174,132.806107 260.178497,132.890137 
	C264.404175,133.195526 268.665253,133.010651 272.794495,133.010651 
	C272.794495,107.972107 272.794495,83.700493 272.794495,58.602074 
	C267.221802,59.048893 261.919312,59.474049 256.380829,60.505016 
z"/>
<path fill="#E7E7E7" opacity="1.000000" stroke="none" 
	d="
M244.047455,112.980995 
	C243.694778,114.693779 243.044006,116.405144 243.035797,118.119583 
	C242.957932,134.412598 242.876144,150.707504 243.071335,166.998550 
	C243.117950,170.889328 242.069855,172.186646 238.052048,172.091904 
	C226.918884,171.829422 215.772232,171.848099 204.637909,172.084702 
	C200.799988,172.166260 199.855103,170.837112 199.919266,167.205124 
	C200.116028,156.069565 199.972763,144.927979 199.923340,132.853271 
	C199.920288,125.956406 199.955627,119.995033 199.976395,113.562881 
	C199.963821,102.023140 199.965836,90.954163 199.931549,79.425377 
	C199.919067,73.013916 199.942856,67.062271 199.966644,61.110626 
	C199.976273,49.817120 200.085007,38.522285 199.933487,27.230942 
	C199.889572,23.958460 200.974319,22.918064 204.222244,22.961136 
	C215.846069,23.115280 227.473221,23.038759 239.098984,23.006655 
	C241.276688,23.000643 243.023849,23.112078 243.008911,26.066025 
	C242.915649,44.498482 242.915115,62.931400 242.849731,81.364052 
	C242.848160,81.803635 242.448517,82.241814 241.596222,82.720337 
	C235.870590,75.769165 230.854324,68.724403 225.631744,61.836056 
	C224.667664,60.564457 222.920898,59.239597 221.445831,59.128498 
	C217.668457,58.844002 213.840637,59.229218 209.794083,59.430683 
	C209.592331,59.999226 209.629486,60.483719 209.521805,61.417023 
	C209.358444,71.989914 209.287186,82.114235 209.334610,92.238007 
	C209.395203,105.168716 209.551559,118.098976 209.551544,131.257431 
	C209.637192,131.875656 209.837906,132.265869 210.479309,132.814316 
	C215.848343,132.972534 220.776703,132.972534 226.068695,132.972534 
	C226.068695,125.189415 226.068710,117.916847 226.068710,110.644287 
	C226.068710,103.503860 226.068695,96.363434 226.068695,89.223015 
	C226.440338,89.163300 226.811996,89.103584 227.183640,89.043869 
	C232.804916,97.022911 238.426178,105.001953 244.047455,112.980995 
z"/>
<path fill="#E6E6E6" opacity="1.000000" stroke="none" 
	d="
M124.023926,133.204056 
	C124.008110,144.330902 123.916267,155.458481 124.026550,166.584076 
	C124.056503,169.605591 123.465836,171.117950 119.957458,171.065308 
	C108.002777,170.886017 96.042053,171.089005 84.088676,170.870331 
	C82.721954,170.845322 80.238693,169.108307 80.214485,168.117630 
	C79.963081,157.830124 80.097786,147.532791 80.176041,137.238571 
	C80.180756,136.618454 80.616982,136.001602 81.464767,134.847717 
	C92.981773,134.312180 103.886444,134.312180 114.732697,134.312180 
	C114.732697,127.808304 114.732697,122.044205 114.732697,115.896255 
	C104.255920,115.896255 94.038391,115.896255 82.256012,115.896255 
	C87.982849,111.793053 92.586555,108.667809 96.960609,105.248764 
	C98.179085,104.296318 98.718254,102.474838 99.679382,100.618340 
	C99.717293,98.105652 99.644875,96.026665 99.644897,93.634148 
	C99.651115,92.901413 99.584915,92.482208 99.558212,91.778259 
	C99.146416,91.155258 98.695137,90.817009 98.019600,90.244308 
	C93.050934,86.587677 88.306519,83.165489 82.342445,78.863548 
	C94.149574,78.863548 104.365082,78.863548 114.688789,78.863548 
	C114.688789,72.609207 114.688789,66.747711 114.688789,60.182621 
	C105.280540,60.182621 96.176216,60.182621 87.071884,60.182621 
	C84.935699,59.569420 82.799507,58.956215 80.056892,58.168934 
	C80.056892,47.286835 79.957939,36.180584 80.218788,25.082794 
	C80.243317,24.039118 82.518547,22.189837 83.775375,22.166849 
	C95.922615,21.944666 108.075668,22.063231 120.226791,22.015453 
	C123.908813,22.000977 123.998665,24.377254 123.992729,27.071398 
	C123.968521,38.057266 124.005028,49.043270 123.861938,60.897240 
	C123.469261,65.980072 122.929642,70.209084 123.125259,74.403801 
	C123.224701,76.535942 124.647850,78.606346 125.055573,80.860321 
	C124.101532,81.920418 123.110703,82.818542 123.098022,83.730263 
	C122.976585,92.463074 122.942482,101.199722 123.115845,109.930649 
	C123.137421,111.016975 124.510406,112.076462 125.039680,113.481613 
	C121.363823,120.146492 122.801064,126.679688 124.023926,133.204056 
z"/>
<path fill="#2F2F2F" opacity="1.000000" stroke="none" 
	d="
M86.726379,60.297462 
	C96.176216,60.182621 105.280540,60.182621 114.688789,60.182621 
	C114.688789,66.747711 114.688789,72.609207 114.688789,78.863548 
	C104.365082,78.863548 94.149574,78.863548 82.342445,78.863548 
	C88.306519,83.165489 93.050934,86.587677 98.026627,90.527519 
	C98.678177,91.384453 99.098442,91.723724 99.518715,92.062996 
	C99.584915,92.482208 99.651115,92.901413 99.319046,93.765610 
	C99.136864,96.491066 99.352966,98.771553 99.569061,101.052032 
	C98.718254,102.474838 98.179085,104.296318 96.960609,105.248764 
	C92.586555,108.667809 87.982849,111.793053 82.256012,115.896255 
	C94.038391,115.896255 104.255920,115.896255 114.732697,115.896255 
	C114.732697,122.044205 114.732697,127.808304 114.732697,134.312180 
	C103.886444,134.312180 92.981773,134.312180 81.634720,134.433044 
	C71.095436,134.553925 60.998520,134.553925 50.427235,134.553925 
	C50.427235,129.491684 50.165863,125.176567 50.572742,120.925415 
	C50.710251,119.488708 52.301216,117.884148 53.634972,116.918480 
	C62.616333,110.415756 71.707176,104.064247 81.101601,97.424126 
	C72.340660,91.202377 64.107567,84.999893 55.487816,79.391701 
	C51.485363,76.787613 49.766407,73.895065 50.382072,69.223946 
	C50.725090,66.621452 50.443691,63.936672 50.443691,60.412300 
	C62.578640,60.412300 74.479759,60.412300 86.726379,60.297462 
z"/>
<path fill="#303030" opacity="1.000000" stroke="none" 
	d="
M244.324417,113.169952 
	C238.426178,105.001953 232.804916,97.022911 227.183640,89.043869 
	C226.811996,89.103584 226.440338,89.163300 226.068695,89.223015 
	C226.068695,96.363434 226.068710,103.503860 226.068710,110.644287 
	C226.068710,117.916847 226.068695,125.189415 226.068695,132.972534 
	C220.776703,132.972534 215.848343,132.972534 210.564636,132.633606 
	C210.028427,131.872925 209.847534,131.451187 209.666626,131.029434 
	C209.551559,118.098976 209.395203,105.168716 209.334610,92.238007 
	C209.287186,82.114235 209.358444,71.989914 209.711761,61.372120 
	C210.042023,60.367809 210.037521,59.857220 210.032990,59.346630 
	C213.840637,59.229218 217.668457,58.844002 221.445831,59.128498 
	C222.920898,59.239597 224.667664,60.564457 225.631744,61.836056 
	C230.854324,68.724403 235.870590,75.769165 241.214172,82.947319 
	C246.118011,89.719841 250.765610,96.305084 256.298157,104.144218 
	C256.298157,89.090607 256.298157,75.554222 256.660583,61.466095 
	C257.131226,60.788265 257.343231,60.562302 257.332245,60.550858 
	C257.109100,60.318893 256.860413,60.111504 256.616821,59.899200 
	C261.919312,59.474049 267.221802,59.048893 272.794495,58.602074 
	C272.794495,83.700493 272.794495,107.972107 272.794495,133.010651 
	C268.665253,133.010651 264.404175,133.195526 260.178497,132.890137 
	C259.016174,132.806107 257.710632,131.442749 256.896515,130.349442 
	C252.721649,124.742882 248.685822,119.032806 244.324417,113.169952 
z"/>
<path fill="#313131" opacity="1.000000" stroke="none" 
	d="
M199.990967,114.033653 
	C199.955627,119.995033 199.920288,125.956406 199.915253,132.373993 
	C182.745026,134.144791 168.739502,123.699539 164.634125,106.495132 
	C159.558746,85.225639 170.853104,65.624138 190.679733,61.503990 
	C193.407516,60.937134 196.281525,61.074047 199.527252,60.997887 
	C199.942856,67.062271 199.919067,73.013916 199.530243,79.523941 
	C197.524445,80.273880 195.855469,80.333992 194.247543,80.678719 
	C185.144653,82.630241 180.092270,90.676460 181.581726,100.112793 
	C183.053680,109.438232 192.104385,114.375786 199.990967,114.033653 
z"/>
<path fill="#303030" opacity="1.000000" stroke="none" 
	d="
M124.441040,133.127014 
	C122.801064,126.679688 121.363823,120.146492 125.411842,113.505600 
	C134.881027,110.905075 139.451935,104.859764 139.072159,95.909584 
	C138.726517,87.764206 133.731430,82.179466 125.472610,80.704659 
	C124.647850,78.606346 123.224701,76.535942 123.125259,74.403801 
	C122.929642,70.209084 123.469261,65.980072 123.848824,61.363365 
	C140.530838,61.345592 152.860168,72.151405 155.873001,89.763260 
	C155.955154,91.593864 156.320160,92.811249 156.685165,94.028641 
	C156.744186,95.730942 156.803207,97.433250 156.455353,99.640518 
	C156.064163,101.440102 156.079849,102.734718 156.095535,104.029343 
	C154.185165,120.139282 142.137863,131.331635 124.441040,133.127014 
z"/>
<path fill="#414141" opacity="1.000000" stroke="none" 
	d="
M156.769760,93.686073 
	C156.320160,92.811249 155.955154,91.593864 155.851227,90.168671 
	C156.359650,91.088417 156.606995,92.215965 156.769760,93.686073 
z"/>
<path fill="#414141" opacity="1.000000" stroke="none" 
	d="
M156.267456,103.725388 
	C156.079849,102.734718 156.064163,101.440102 156.364502,100.058090 
	C156.600143,101.120949 156.519760,102.271194 156.267456,103.725388 
z"/>
<path fill="#212121" opacity="1.000000" stroke="none" 
	d="
M256.498840,60.202110 
	C256.860413,60.111504 257.109100,60.318893 257.332245,60.550858 
	C257.343231,60.562302 257.131226,60.788265 256.792847,61.021790 
	C256.502045,60.921158 256.441437,60.713089 256.498840,60.202110 
z"/>
<path fill="#FBFBFB" opacity="1.000000" stroke="none" 
	d="
M199.976395,113.562881 
	C192.104385,114.375786 183.053680,109.438232 181.581726,100.112793 
	C180.092270,90.676460 185.144653,82.630241 194.247543,80.678719 
	C195.855469,80.333992 197.524445,80.273880 199.566528,79.983765 
	C199.965836,90.954163 199.963821,102.023140 199.976395,113.562881 
z"/>
<path fill="#212121" opacity="1.000000" stroke="none" 
	d="
M209.794098,59.430683 
	C210.037521,59.857220 210.042023,60.367809 209.856598,60.923302 
	C209.629486,60.483719 209.592331,59.999226 209.794098,59.430683 
z"/>
<path fill="#212121" opacity="1.000000" stroke="none" 
	d="
M209.551544,131.257431 
	C209.847534,131.451187 210.028427,131.872925 210.123978,132.475388 
	C209.837906,132.265869 209.637192,131.875656 209.551544,131.257431 
z"/>
<path fill="#FBFBFB" opacity="1.000000" stroke="none" 
	d="
M125.055573,80.860321 
	C133.731430,82.179466 138.726517,87.764206 139.072159,95.909584 
	C139.451935,104.859764 134.881027,110.905075 125.629356,113.172363 
	C124.510406,112.076462 123.137421,111.016975 123.115845,109.930649 
	C122.942482,101.199722 122.976585,92.463074 123.098022,83.730263 
	C123.110703,82.818542 124.101532,81.920418 125.055573,80.860321 
z"/>
<path fill="#454545" opacity="1.000000" stroke="none" 
	d="
M99.679382,100.618340 
	C99.352966,98.771553 99.136864,96.491066 99.246613,94.079132 
	C99.644875,96.026665 99.717293,98.105652 99.679382,100.618340 
z"/>
<path fill="#454545" opacity="1.000000" stroke="none" 
	d="
M99.558212,91.778259 
	C99.098442,91.723724 98.678177,91.384453 98.250885,90.761963 
	C98.695137,90.817009 99.146416,91.155258 99.558212,91.778259 
z"/>
</svg>